<?xml version="1.0" encoding="UTF-8" standalone="no"?>
<!-- Generator: Adobe Illustrator 16.0.0, SVG Export Plug-In . SVG Version: 6.00 Build 0)  -->

<svg
   xmlns:dc="http://purl.org/dc/elements/1.1/"
   xmlns:cc="http://creativecommons.org/ns#"
   xmlns:rdf="http://www.w3.org/1999/02/22-rdf-syntax-ns#"
   xmlns:svg="http://www.w3.org/2000/svg"
   xmlns="http://www.w3.org/2000/svg"
   xmlns:sodipodi="http://sodipodi.sourceforge.net/DTD/sodipodi-0.dtd"
   xmlns:inkscape="http://www.inkscape.org/namespaces/inkscape"
   version="1.1"
   id="Capa_1"
   x="0px"
   y="0px"
   width="97.385px"
   height="97.385px"
   viewBox="0 0 97.385 97.385"
   style="enable-background:new 0 0 97.385 97.385;"
   xml:space="preserve"
   sodipodi:docname="computer_active.svg"
   inkscape:version="0.92.1 r"><metadata
     id="metadata5998"><rdf:RDF><cc:Work
         rdf:about=""><dc:format>image/svg+xml</dc:format><dc:type
           rdf:resource="http://purl.org/dc/dcmitype/StillImage" /><dc:title></dc:title></cc:Work></rdf:RDF></metadata><defs
     id="defs5996" /><sodipodi:namedview
     pagecolor="#ffffff"
     bordercolor="#666666"
     borderopacity="1"
     objecttolerance="10"
     gridtolerance="10"
     guidetolerance="10"
     inkscape:pageopacity="0"
     inkscape:pageshadow="2"
     inkscape:window-width="1920"
     inkscape:window-height="1251"
     id="namedview5994"
     showgrid="false"
     inkscape:zoom="2.4233711"
     inkscape:cx="48.692501"
     inkscape:cy="48.692501"
     inkscape:window-x="0"
     inkscape:window-y="0"
     inkscape:window-maximized="1"
     inkscape:current-layer="Capa_1" /><g
     id="g5961"
     style="fill:#e2e4e5;fill-opacity:1"><g
       id="g5959"
       style="fill:#e2e4e5;fill-opacity:1"><path
         d="M97.265,71.261c-0.093-0.108-0.23-0.172-0.374-0.172H0.494c-0.144,0-0.28,0.063-0.374,0.172    c-0.094,0.108-0.136,0.253-0.115,0.396c0.014,0.09,1.468,9.016,12.753,9.016h71.869c11.284,0,12.738-8.926,12.753-9.016    C97.4,71.514,97.358,71.369,97.265,71.261z M55.942,77.547h-14.5v-3.334h14.5V77.547z"
         id="path5955"
         style="fill:#e2e4e5;fill-opacity:1" /><path
         d="M10.507,67.619h76.37c1.104,0,2-0.896,2-2V18.713c0-1.104-0.896-2-2-2h-76.37c-1.104,0-2,0.896-2,2v46.906    C8.507,66.723,9.403,67.619,10.507,67.619z M15.507,23.713h66.37v36.906h-66.37V23.713z"
         id="path5957"
         style="fill:#e2e4e5;fill-opacity:1" /></g></g><g
     id="g5963" /><g
     id="g5965" /><g
     id="g5967" /><g
     id="g5969" /><g
     id="g5971" /><g
     id="g5973" /><g
     id="g5975" /><g
     id="g5977" /><g
     id="g5979" /><g
     id="g5981" /><g
     id="g5983" /><g
     id="g5985" /><g
     id="g5987" /><g
     id="g5989" /><g
     id="g5991" /></svg>