<?xml version="1.0" encoding="iso-8859-1"?>
<!-- Generator: Adobe Illustrator 19.0.0, SVG Export Plug-In . SVG Version: 6.00 Build 0)  -->
<svg version="1.1" id="Layer_1" xmlns="http://www.w3.org/2000/svg" xmlns:xlink="http://www.w3.org/1999/xlink" x="0px" y="0px"
	 viewBox="0 0 461.422 461.422" style="enable-background:new 0 0 461.422 461.422;" xml:space="preserve">
<g>
	
		<rect x="150.902" y="174.014" transform="matrix(-0.9587 -0.2843 0.2843 -0.9587 252.7205 641.287)" style="fill:#E2E4E5;" width="43.999" height="256.576"/>
	
		<rect x="160.232" y="280.303" transform="matrix(-0.2843 -0.9587 0.9587 -0.2843 80.7212 664.8641)" style="fill:#E2E4E5;" width="256.576" height="44"/>
	<polygon style="fill:#E2E4E5;" points="252.033,0 209.39,0 209.39,42.643 217.643,42.643 217.643,75.145 243.78,75.145 
		243.78,42.643 252.033,42.643 	"/>
	<path style="fill:#E2E4E5;" d="M230.712,191.789c-34.687,0-62.906-28.22-62.906-62.907s28.22-62.906,62.906-62.906
		s62.906,28.22,62.906,62.906C293.618,163.569,265.398,191.789,230.712,191.789z M230.712,85.975
		c-23.658,0-42.906,19.248-42.906,42.906c0,23.659,19.248,42.907,42.906,42.907s42.906-19.248,42.906-42.907
		C273.618,105.223,254.37,85.975,230.712,85.975z"/>
	
		<rect x="126.281" y="424.561" transform="matrix(-0.9587 -0.2844 0.2844 -0.9587 131.2501 904.3622)" style="fill:#E2E4E5;" width="10.001" height="36.184"/>
	
		<rect x="312.053" y="437.65" transform="matrix(-0.2843 -0.9587 0.9587 -0.2843 -0.3767 885.019)" style="fill:#E2E4E5;" width="36.182" height="10.001"/>
	<polygon style="fill:#E2E4E5;" points="327.547,278.841 327.547,286.235 133.876,286.235 133.876,278.841 120.623,278.841 
		120.623,303.629 133.876,303.629 133.876,296.235 327.547,296.235 327.547,303.629 340.8,303.629 340.8,278.841 	"/>
	<path style="fill:#E2E4E5;" d="M230.712,320.833L230.712,320.833c-6.817,0-12.344-5.527-12.344-12.344v-34.508
		c0-6.817,5.527-12.344,12.344-12.344l0,0c6.817,0,12.344,5.527,12.344,12.344v34.508
		C243.056,315.306,237.529,320.833,230.712,320.833z"/>
	<path style="opacity:0.4;fill:#E2E4E5;enable-background:new    ;" d="M324.975,425.309l21.093-6.254L309.65,296.236h17.897v7.394
		H340.8v-24.789h-13.253v7.395h-20.863l-33.042-111.434c12.28-11.488,19.976-27.818,19.976-45.92
		c0-30.206-21.403-55.499-49.837-61.532V42.643h8.253V0h-21.323v85.976c23.658,0,42.906,19.248,42.906,42.906
		s-19.248,42.906-42.906,42.906v20c0.69,0,1.373-0.03,2.058-0.052l28.021,94.5h-17.735v-12.254c0-6.817-5.527-12.344-12.344-12.344
		v59.196c6.817,0,12.344-5.527,12.344-12.344v-12.253h20.7l40.127,135.327l16.299-4.833l10.286,34.691l9.588-2.842l-10.286-34.691
		L324.975,425.309z"/>
</g>
<g>
</g>
<g>
</g>
<g>
</g>
<g>
</g>
<g>
</g>
<g>
</g>
<g>
</g>
<g>
</g>
<g>
</g>
<g>
</g>
<g>
</g>
<g>
</g>
<g>
</g>
<g>
</g>
<g>
</g>
</svg>
