<?xml version="1.0" encoding="iso-8859-1"?>
<!-- Generator: Adobe Illustrator 16.0.0, SVG Export Plug-In . SVG Version: 6.00 Build 0)  -->
<!DOCTYPE svg PUBLIC "-//W3C//DTD SVG 1.1//EN" "http://www.w3.org/Graphics/SVG/1.1/DTD/svg11.dtd">
<svg xmlns="http://www.w3.org/2000/svg" xmlns:xlink="http://www.w3.org/1999/xlink" version="1.1" id="Capa_1" x="0px" y="0px" width="512px" height="512px" viewBox="0 0 584.107 584.107" style="enable-background:new 0 0 584.107 584.107;" xml:space="preserve">
<g>
	<g>
		<path d="M54.903,584.107h94.422l48.308-46.093h94.419h94.422l48.309,46.093h94.42c-75.65-41.013-126.48-146.947-159.451-250.519    h16.891v-49.294h-31.373C326.585,178.572,316.206,87.21,316.206,87.21h-9.039L292.053,0L276.94,87.21h-9.039    c0,0-10.38,91.359-39.064,197.085h-31.374v49.294h16.891C181.382,437.157,130.553,543.092,54.903,584.107z M255.514,402.273    l14.902,14.905l-25.695,25.695C248.678,429.431,252.31,415.508,255.514,402.273z M292.053,494.909H235.96l56.093-56.093    l56.092,56.096h-56.092V494.909z M339.386,442.873l-25.695-25.694l14.902-14.905C331.796,415.508,335.429,429.431,339.386,442.873    z M292.053,173.544c0,0,4.667,84.502,9.606,110.748h-9.606h-9.605C287.387,258.05,292.053,173.544,292.053,173.544z     M292.053,333.589h21.959c0,0,2.414,13.596,6.6,33.394l-28.559,28.559l-28.559-28.559c4.186-19.798,6.601-33.394,6.601-33.394    H292.053L292.053,333.589z" fill="#9D9D9D"/>
	</g>
</g>
<g>
</g>
<g>
</g>
<g>
</g>
<g>
</g>
<g>
</g>
<g>
</g>
<g>
</g>
<g>
</g>
<g>
</g>
<g>
</g>
<g>
</g>
<g>
</g>
<g>
</g>
<g>
</g>
<g>
</g>
</svg>
