<svg xmlns="http://www.w3.org/2000/svg" viewBox="-885 703 43.213 39">
  <g id="icon" transform="translate(-885 703)">
    <path fill="#9B59B6" id="Path_3" data-name="Path 3" class="cls-1" d="M42.488,34.671l-6.549-6.347V20.991a2.478,2.478,0,0,0-4.954,0v2.531L26.109,18.8a6.667,6.667,0,0,0-9.008,0L.726,34.671a2.35,2.35,0,0,0,0,3.4,2.533,2.533,0,0,0,3.5,0L20.6,22.195a1.5,1.5,0,0,1,2,0L38.984,38.066a2.536,2.536,0,0,0,3.5,0A2.349,2.349,0,0,0,42.488,34.671Z" transform="translate(-0.001 -17.047)"/>
    <path fill="#9B59B6" id="Path_4" data-name="Path 4" class="cls-1" d="M85.108,128.093a1.243,1.243,0,0,0-1.72,0l-14.4,13.956a1.163,1.163,0,0,0-.356.835v10.179a4.4,4.4,0,0,0,4.463,4.325h7.131v-10.7h8.051v10.7H95.4a4.4,4.4,0,0,0,4.463-4.325V142.885a1.159,1.159,0,0,0-.356-.835Z" transform="translate(-62.641 -118.389)"/>
  </g>
</svg>
