<?xml version="1.0" encoding="iso-8859-1"?>
<!-- Generator: Adobe Illustrator 16.0.0, SVG Export Plug-In . SVG Version: 6.00 Build 0)  -->
<!DOCTYPE svg PUBLIC "-//W3C//DTD SVG 1.1//EN" "http://www.w3.org/Graphics/SVG/1.1/DTD/svg11.dtd">
<svg xmlns="http://www.w3.org/2000/svg" xmlns:xlink="http://www.w3.org/1999/xlink" version="1.1" id="Capa_1" x="0px" y="0px" width="512px" height="512px" viewBox="0 0 865.5 865.5" style="enable-background:new 0 0 865.5 865.5;" xml:space="preserve">
<g>
	<g>
		<path d="M366.59,865.5h10c13.8,0,25-11.199,25-25V548.9l181.5,289.6c7.3,11.699,22.8,15.199,34.5,7.9l8.5-5.301    c11.7-7.299,15.2-22.799,7.9-34.5l-200-319c8.5-12.199,13.399-27.1,13.399-43.1c0-16.1-5.1-31.1-13.6-43.4l-137.3,33.8    c-0.4,3.199-0.601,6.4-0.601,9.699c0,16,5,30.801,13.4,43.1l-200,319c-7.3,11.701-3.8,27.102,7.9,34.5l8.5,5.301    c11.7,7.301,27.1,3.801,34.5-7.9L341.59,548.9v291.6C341.59,854.301,352.791,865.5,366.59,865.5z" fill="#9B59B6"/>
		<path d="M68.09,420.9c1.1,0,116.8-28.2,116.8-28.2c-13.5-22.3-24.9-50.8-32.3-81.2c-7.5-30.6-10.5-60.9-8.8-87l-113.6,27.8    c-18.2,4.5-23.8,45.7-12.4,92.2C28.391,388.2,50.291,420.9,68.09,420.9z" fill="#9B59B6"/>
		<path d="M354.09,134.3l-154.6,37.8c-5.7,1.4-10.6,5.3-14.5,11.3c-3,4.6-5.5,10.4-7.4,17.2c-1.4,4.9-2.4,10.3-3.1,16.2    c-3,23.8-0.9,54.7,7.2,87.4c8,32.7,20.4,61.101,34,80.8c3.4,4.9,6.8,9.2,10.3,12.9c4.8,5.2,9.7,9.2,14.5,11.9    c4.5,2.5,9,3.899,13.3,3.899c1.6,0,3.2-0.2,4.7-0.6L406.09,377l7.7-1.899c-22.6-30.7-40.2-73.6-50.7-116.4    c-10.8-44.1-14.1-87.7-9.399-122.7C353.89,135.5,353.991,134.9,354.09,134.3z" fill="#9B59B6"/>
		<path d="M852.89,274.1l-62.399-255c-2.8-11.4-13-19.1-24.3-19.1c-2,0-4,0.2-6,0.7l-345.4,84.6c-4.1,1-7.8,3-11.2,6    c-4.899,4.3-9.1,10.6-12.399,18.5c-2.101,5-3.801,10.6-5.2,16.7c-7.101,31.2-5.5,76.6,6.399,125.2    c12.2,49.7,32.4,91.5,53.601,115.601c4.3,4.8,8.6,9,12.899,12.3c1.101,0.899,2.4,1.7,3.7,2.399c9.601,5.5,21.101,7,31.9,4.301    l340.1-82.101C847.991,301,856.191,287.5,852.89,274.1z" fill="#9B59B6"/>
	</g>
</g>
<g>
</g>
<g>
</g>
<g>
</g>
<g>
</g>
<g>
</g>
<g>
</g>
<g>
</g>
<g>
</g>
<g>
</g>
<g>
</g>
<g>
</g>
<g>
</g>
<g>
</g>
<g>
</g>
<g>
</g>
</svg>
