<?xml version="1.0" encoding="iso-8859-1"?>
<!-- Generator: Adobe Illustrator 19.0.0, SVG Export Plug-In . SVG Version: 6.00 Build 0)  -->
<svg xmlns="http://www.w3.org/2000/svg" xmlns:xlink="http://www.w3.org/1999/xlink" version="1.1" id="Layer_1" x="0px" y="0px" viewBox="0 0 512 512" style="enable-background:new 0 0 512 512;" xml:space="preserve" width="512px" height="512px">
<g>
	<g>
		<path d="M367.677,28.5C333.408,9.855,294.71,0.001,256.01,0c-38.706-0.001-77.414,9.853-111.697,28.51    C134.25,33.99,128,44.74,128,56.552v188.781c0,5.896,4.771,10.667,10.667,10.667h10.667v42.667    c-5.896,0-10.667,4.771-10.667,10.667V352c0,5.896,4.771,10.667,10.667,10.667v138.667c0,5.896,4.771,10.667,10.667,10.667    s10.667-4.771,10.667-10.667V362.667c5.896,0,10.667-4.771,10.667-10.667v-42.667c0-5.896-4.771-10.667-10.667-10.667V256h74.667    v42.667c-5.896,0-10.667,4.771-10.667,10.667V352c0,5.896,4.771,10.667,10.667,10.667v138.667c0,5.896,4.771,10.667,10.667,10.667    s10.667-4.771,10.667-10.667V362.667c5.896,0,10.667-4.771,10.667-10.667v-42.667c0-5.896-4.771-10.667-10.667-10.667V256h74.667    v42.667c-5.896,0-10.667,4.771-10.667,10.667V352c0,5.896,4.771,10.667,10.667,10.667v138.667c0,5.896,4.771,10.667,10.667,10.667    c5.896,0,10.667-4.771,10.667-10.667V362.667c5.896,0,10.667-4.771,10.667-10.667v-42.667c0-5.896-4.771-10.667-10.667-10.667V256    h10.667c5.896,0,10.667-4.771,10.667-10.667V56.552C384,44.74,377.75,33.99,367.677,28.5z M362.667,85.333H149.333V56.552    c0-3.938,2.031-7.594,5.177-9.302c62.333-33.917,140.656-33.906,202.969-0.01c3.156,1.719,5.188,5.375,5.188,9.313V85.333z" fill="#9B59B6"/>
	</g>
</g>
<g>
</g>
<g>
</g>
<g>
</g>
<g>
</g>
<g>
</g>
<g>
</g>
<g>
</g>
<g>
</g>
<g>
</g>
<g>
</g>
<g>
</g>
<g>
</g>
<g>
</g>
<g>
</g>
<g>
</g>
</svg>
